<?xml version="1.0" encoding="utf-8"?>
<!-- Generator: Adobe Illustrator 27.6.1, SVG Export Plug-In . SVG Version: 6.00 Build 0)  -->
<svg version="1.1" id="Layer_1" xmlns="http://www.w3.org/2000/svg" xmlns:xlink="http://www.w3.org/1999/xlink" x="0px" y="0px"
	 viewBox="0 0 1000 1000" style="enable-background:new 0 0 1000 1000;" xml:space="preserve">
<style type="text/css">
	.st0{fill:#F2F2F2;}
	.st1{fill:#3B3B3B;}
	.st2{fill:none;}
	.st3{enable-background:new    ;}
</style>
<g>
	<path class="st0" d="M24.9,529.4c-6.4,0-12.7-2.4-17.6-7.3c-9.7-9.7-9.7-25.5,0-35.2L292.2,202c9.7-9.7,25.5-9.7,35.2,0
		c9.7,9.7,9.7,25.5,0,35.2L42.4,522.1C37.6,527,31.1,529.4,24.9,529.4z"/>
	<path class="st0" d="M185.5,573.4l146.6-146.6c16.2-16.2,16.2-42.5,0-58.7s-42.5-16.2-58.7,0L97.5,544
		c-7.8,7.7-12.1,18.4-12.1,29.3c0,10.9,4.4,21.6,12.1,29.3l175.9,175.9c8.1,8.1,18.7,12.1,29.3,12.1c10.7,0,21.2-4,29.3-12.1
		c16.2-16.2,16.2-42.5,0-58.7L185.5,573.4z"/>
	<path class="st1" d="M803.2,368.1c-16.2-16.2-42.5-16.2-58.7,0c-16.2,16.2-16.2,42.5,0,58.7l63.7,63.7h117.3L803.2,368.1z"/>
	<path class="st1" d="M744.5,720c-16.2,16.2-16.2,42.5,0,58.7c8.1,8.1,18.7,12.1,29.3,12.1c10.5,0,21.2-4,29.3-12.1l122.4-122.4
		H808.1L744.5,720z"/>
	<path class="st1" d="M371.9,766.1c-8,11.3-5.3,26.7,6,34.7c4.4,3.1,9.3,4.5,14.3,4.5c7.8,0,15.4-3.7,20.3-10.5l97.7-138.4h-60.9
		L371.9,766.1z"/>
	<path class="st1" d="M704.8,380.7c8-11.3,5.3-26.7-6-34.7c-11.3-8-26.7-5.3-34.7,6l-97.7,138.4h60.9L704.8,380.7z"/>
	<polygon class="st2" points="999.9,490.5 925.5,490.5 808.2,490.5 627.3,490.5 566.4,490.5 278.3,490.5 278.3,656.3 449.3,656.3 
		510.2,656.3 808.2,656.3 925.5,656.3 999.9,656.3 	"/>
	<g class="st3">
		<path class="st0" d="M278.3,603.8l22.7-50.8c1.6-3.6,3.9-6.4,7-8.5s7.6-3.1,13.8-3.1c5,0,9.2,1,12.5,2.9c3.3,2,5.8,4.8,7.6,8.7
			l22.7,50.8h-28.7l-5.8-12.6h-26.2l-5.4,12.6L278.3,603.8L278.3,603.8z M308.1,581.2h16.8l-6.7-15.9c-0.1-0.5-0.2-0.9-0.5-1.3
			c-0.2-0.5-0.6-0.6-1-0.6c-0.5,0-1,0.2-1.1,0.6c-0.1,0.4-0.5,0.9-0.6,1.3L308.1,581.2z"/>
		<path class="st0" d="M444.4,605.7c-3.1,0-5.9-0.2-8.6-0.9c-2.7-0.6-5-1.6-7.1-3.2c-0.6-0.5-1.3-1.1-2.3-1.8
			c-0.9-0.6-1.8-1.5-2.8-2.3c-1-0.9-2-1.7-3.1-2.6c-1-0.9-2.1-1.8-3.1-2.7c-1-0.9-2-1.8-2.8-2.7c-1.1-1.1-2-2-2.8-2.7
			c-0.9-0.7-1.7-1.5-2.8-2.3l-2.6-1.2v20.3h-26.3v-54c0-1.7,0.1-3.2,0.4-4.3c0.2-1.2,1-2.1,2.2-2.7s3.2-1,5.9-1c2.9,0,6,0,8.9,0
			c3.1,0,6,0,8.9,0c0,1.3,0,2.9,0,4.7s0,3.7,0,5.5s0,3.7,0,5.5s0,3.3,0,4.5l2.6-1.1c0.6-0.4,1.2-0.7,1.8-1.2s1.3-1.1,2.2-2
			c0.9-0.9,2.1-2.1,3.8-3.6s3.6-3.1,5.5-4.7c2-1.7,3.4-2.9,4.7-3.9c2.4-1.8,5.1-3.1,8-3.7c2.9-0.6,6.5-1,10.7-1
			c3.1,0,5.6,0.1,7.6,0.4c2,0.2,4.2,0.6,6.5,1c-0.1,0.1-0.7,0.6-1.6,1.5c-0.9,0.9-1.8,1.7-2.9,2.6c-1.1,0.9-1.8,1.6-2.4,2.1
			c-3.6,2.4-7.2,5-11.1,7.8c-3.9,2.8-7.8,5.6-11.6,8.5c-3.8,2.8-7.1,5.6-10,8.3l0.1-7.7c2.7,2.2,5.6,4.7,8.8,7.2
			c3.2,2.6,6.6,5.4,10.3,8.2c3.6,2.8,7.2,5.8,11,8.7c3.8,2.9,7.6,5.8,11.4,8.5c-0.5,0.9-1.6,1.8-3.1,3.1c-1.5,1.2-3.6,2.3-5.9,3.3
			C450.5,605.2,447.7,605.7,444.4,605.7z"/>
		<path class="st0" d="M477.4,603.8v-54.9c0-3.1,0.6-5,2-5.8c1.3-0.7,3.6-1.2,6.7-1.2h17.8v23h26.3v-23h26.6v53.9
			c0,3.2-0.5,5.4-1.6,6.5c-1.1,1.1-3.4,1.6-7.3,1.6h-17.6v-25.5h-26.3v25.5L477.4,603.8L477.4,603.8z"/>
		<path class="st0" d="M571.2,603.8l22.7-50.8c1.6-3.6,3.9-6.4,7-8.5c3.1-2.1,7.6-3.1,13.8-3.1c5,0,9.2,1,12.5,2.9
			c3.3,2,5.8,4.8,7.6,8.7l22.7,50.8h-28.9l-5.8-12.6h-26l-5.4,12.6L571.2,603.8L571.2,603.8z M600.9,581.2h16.8l-6.7-15.9
			c-0.1-0.5-0.2-0.9-0.5-1.3c-0.2-0.5-0.6-0.6-1-0.6c-0.5,0-1,0.2-1.1,0.6c-0.1,0.4-0.4,0.9-0.6,1.3L600.9,581.2z"/>
		<path class="st0" d="M712.5,584.7c-2.9,0-5.5,0-7.6,0.1c-2.1,0-4.2,0-6.1,0v19h-26.6v-53.2c0-2.6,0.6-4.7,1.7-6.4
			c1.1-1.7,3.7-2.4,7.7-2.4c1.3,0,3.4,0,6.4-0.1c2.9,0,6.2-0.1,10-0.1c3.8,0,7.7,0,11.8,0s8,0,11.6,0s6.9,0.1,9.7,0.1
			c2.7,0,4.7,0.1,5.9,0.2c4.9,0.5,8.7,1.8,11.1,4.3s3.8,6.5,3.8,12.1c0,5.4-0.4,9.2-1,11.4s-1.7,3.9-3.2,5.1
			c-0.7,0.6-1.7,1.1-3.1,1.5c-1.3,0.4-2.7,0.5-4.3,0.5v0.6c0.7,0,1.5,0,2.3,0c0.9,0,1.6,0,2.2,0.1c3.4,0.6,5.5,1.8,6.2,3.8
			c0.7,1.8,1.1,3.9,1.1,6.1v10.8c0,1.8,0.2,3.3,0.6,4c0.4,0.9,0.6,1.3,0.7,1.5h-20.1c-2.7,0-4.8-0.4-6.2-1.2
			c-1.5-0.9-2.2-2.4-2.2-5.1v-6.7c0-2.8-0.6-4.5-1.8-5.1s-3.3-1-6.4-1L712.5,584.7L712.5,584.7z M698.8,572.3c0.9,0,2.1,0,3.9,0
			c1.8,0,3.8,0.1,5.9,0.1c2.1,0,4,0,5.9,0s3.1,0,3.8,0c1.8,0,3.4-0.6,4.9-1.8s2.2-3.6,2.2-6.9c0-2.3-0.4-4.2-1.2-5.5
			s-2.1-2.2-3.9-2.4c-1.2-0.2-2.7-0.2-4.5-0.2s-3.8,0-5.8,0c-2,0-3.8,0-5.5,0c-1.7,0-2.9,0.1-3.7,0.1c-0.1,0-0.4,0.1-1,0.4
			c-0.6,0.2-0.9,0.7-0.9,1.7L698.8,572.3L698.8,572.3z"/>
		<path class="st0" d="M771.9,603.8v-53.6c0-3.4,0.5-5.6,1.6-6.7c1.1-1.1,3.6-1.6,7.5-1.6h25.4l25.4,35.2l0.9,4.2v-39.3h19.2
			c-0.1,0.2-0.2,0.9-0.2,1.8c-0.1,1.1-0.1,2.2-0.1,3.6c0,1.3,0,2.4,0,3.4v46.1c0,3.2-0.7,5.1-2.3,5.9c-1.5,0.7-4.3,1.1-8.1,1.1h-23
			l-26.2-36.3l-0.9-4.3v40.5L771.9,603.8L771.9,603.8z"/>
		<path class="st0" d="M872.9,603.8c0-8.9,0-18,0-26.9s0-18,0-26.9c0-1.7,0.1-3.2,0.4-4.4s1-2.1,2.2-2.7s3.2-0.9,6-0.9h17.9v62
			h-26.5V603.8z"/>
		<path class="st0" d="M913.8,603.8l22.7-50.8c1.6-3.6,3.9-6.4,7-8.5s7.6-3.1,13.8-3.1c5,0,9.2,1,12.5,2.9c3.3,2,5.8,4.8,7.6,8.7
			l22.7,50.8h-28.7l-5.8-12.6h-26l-5.4,12.6L913.8,603.8L913.8,603.8z M943.5,581.2h16.9l-6.7-15.9c-0.1-0.5-0.2-0.9-0.5-1.3
			c-0.2-0.5-0.6-0.6-1-0.6c-0.5,0-1,0.2-1.1,0.6c-0.1,0.4-0.4,0.9-0.6,1.3L943.5,581.2z"/>
	</g>
</g>
</svg>
